<svg width="139" height="75" viewBox="0 0 139 75" fill="none" xmlns="http://www.w3.org/2000/svg">
<g clip-path="url(#clip0)">
<path fill-rule="evenodd" clip-rule="evenodd" d="M76.8496 30.1858L75.6082 36.0609H78.1207C79.553 36.0609 80.49 35.9949 80.9316 35.8629C82.2028 35.4848 82.9846 34.5786 83.2771 33.1383C83.3427 32.8263 83.3785 32.5502 83.3785 32.3102C83.3785 31.38 82.9309 30.7619 82.0357 30.4498C81.4986 30.2758 80.6034 30.1858 79.3561 30.1858H76.8496ZM98.8594 40.5558H105.424L104.451 30.5458H104.35L98.8594 40.5558ZM51.7065 39.6076L50.501 45.3267H54.219C56.5226 45.3267 57.8714 44.3905 58.2713 42.5181C58.3369 42.2301 58.3727 41.96 58.3727 41.714C58.3727 40.3097 57.3224 39.6076 55.2216 39.6076H51.7065ZM53.7475 29.9757L52.6077 35.3288H55.7588C56.9404 35.3288 57.7461 35.2267 58.1698 35.0287C59.1068 34.5606 59.6857 33.7805 59.9125 32.6883C60.1154 31.7521 59.9542 31.0379 59.441 30.5458C59.0411 30.1678 58.3608 29.9757 57.3999 29.9757H53.7475ZM43.0291 49.7375L48.1317 25.6969H61.2194C61.6372 25.7329 61.9953 25.7749 62.2937 25.8229C63.8334 26.111 65.0091 26.6931 65.8088 27.5633C66.5429 28.3674 66.9129 29.3336 66.9129 30.4738C66.9129 30.8759 66.8652 31.29 66.7816 31.7101C66.1788 34.4946 64.0662 36.3249 60.4496 37.1951L60.4138 37.2611C63.5649 37.8432 65.1404 39.3375 65.1404 41.744C65.1404 43.2623 64.7167 44.6365 63.8692 45.8728C63.0218 47.109 61.8879 48.0632 60.4675 48.7353C59.0471 49.4014 56.7972 49.7375 53.7177 49.7375H43.0291ZM0.232751 41.93H6.86317C6.77365 42.3561 6.73187 42.7042 6.73187 42.9802C6.73187 44.6545 7.85385 45.4887 10.0978 45.4887C12.4492 45.4887 13.8278 44.6185 14.2217 42.8842C14.2634 42.6742 14.2873 42.4701 14.2873 42.2841C14.2873 41.4979 13.7383 40.9578 12.6342 40.6638L7.12576 39.2055C3.99854 38.3773 2.4409 36.781 2.4409 34.4106C2.4409 33.9425 2.49461 33.4444 2.608 32.9163C3.06754 30.8819 4.22532 29.2196 6.07539 27.9293C8.16418 26.4711 10.8856 25.7389 14.2276 25.7389C19.8196 25.7389 22.6126 27.4733 22.6126 30.9479C22.6126 31.518 22.5231 32.2202 22.35 33.0423H15.642C15.7495 32.6162 15.8092 32.2622 15.8092 31.9621C15.8092 30.5638 14.9498 29.8677 13.237 29.8677C12.2881 29.8677 11.4764 30.0958 10.7961 30.5518C10.1157 31.0079 9.70989 31.584 9.57263 32.2802C9.53085 32.4722 9.50698 32.6522 9.50698 32.8203C9.50698 33.6904 10.1575 34.2906 11.4525 34.6326L15.642 35.7428C17.4682 36.2289 18.7454 36.715 19.4675 37.2011C20.7029 38.0053 21.3176 39.1695 21.3176 40.6938C21.3176 41.2039 21.2519 41.75 21.1206 42.3441C20.5895 44.7986 19.1751 46.6709 16.8655 47.9672C14.7528 49.1554 12.1269 49.7435 8.97583 49.7435C4.90567 49.7435 2.22009 48.8313 0.925035 47.013C0.310334 46.1608 0 45.1226 0 43.8984C0 43.3883 0.0775836 42.7342 0.232751 41.93ZM22.0099 49.7375L27.1364 25.7749H45.2969L44.3241 30.3658H32.8L31.7257 35.3588H42.5815L41.5788 39.9496H30.7231L29.6489 45.0746H41.4416L40.439 49.7315H22.0099V49.7375ZM115.713 49.7375L120.839 25.7749H139L138.027 30.3658H126.503L125.429 35.3588H136.285L135.282 39.9496H124.426L123.352 45.0746H135.145L134.142 49.7315H115.713V49.7375ZM51.802 8.16756H95.7143L97.3495 0H53.4312L51.802 8.16756ZM49.1164 20.848H93.0287L94.6639 12.6804H50.7516L49.1164 20.848ZM40.3315 62.868H84.2439L85.8791 54.7005H41.9668L40.3315 62.868ZM37.646 75.5484H81.5583L83.1935 67.3809H39.2812L37.646 75.5484ZM86.9653 49.7375L101.635 25.889H109.811L114.233 49.7435H106.66L106.021 44.9546H96.3409L93.6613 49.7435L86.9653 49.7375H79.6963C79.6485 48.8493 79.7739 47.049 80.0663 44.3245C80.1558 43.3703 80.2036 42.7222 80.2036 42.3681C80.2036 41.636 80.0186 41.1199 79.6485 40.8258C79.2785 40.5257 78.5624 40.3757 77.4881 40.3757H74.6712L72.66 49.7375H65.9282L71.0547 25.7689H82.2446C84.1663 25.7689 85.4375 25.8109 86.0641 25.901C87.58 26.123 88.6661 26.6511 89.3167 27.4973C89.9194 28.2474 90.2238 29.1896 90.2238 30.3178C90.2238 30.8939 90.1581 31.5 90.0209 32.1421C89.5733 34.2005 88.511 35.6828 86.8399 36.589C85.7478 37.1831 84.4289 37.5972 82.8891 37.8192L82.8533 37.9513C84.596 37.9933 85.7776 38.3413 86.4043 38.9775C86.9414 39.5116 87.21 40.4057 87.21 41.666C87.21 42.086 87.1741 42.8062 87.1085 43.8264C86.8996 46.7909 86.8578 48.7593 86.9653 49.7375Z" fill="#005EB8"/>
</g>
<defs>
<clipPath id="clip0">
<rect width="139" height="75" fill="white"/>
</clipPath>
</defs>
</svg>
